<svg width="30" height="30" viewBox="0 0 30 30" fill="none" xmlns="http://www.w3.org/2000/svg">
<g id="behance-1-logo-svg-vector 1" clip-path="url(#clip0_1_50)">
<path id="background" d="M14.78 30.0009C22.8213 30.0009 29.34 23.4821 29.34 15.4409C29.34 7.39959 22.8213 0.880859 14.78 0.880859C6.73874 0.880859 0.220001 7.39959 0.220001 15.4409C0.220001 23.4821 6.73874 30.0009 14.78 30.0009Z" fill="white"/>
<path id="behance" d="M10.5063 8.84344C11.1342 8.84344 11.7073 8.89936 12.2256 9.01001C12.7439 9.12067 13.1866 9.30238 13.5558 9.55514C13.925 9.8079 14.2116 10.1434 14.4154 10.5627C14.6193 10.982 14.7206 11.4992 14.7206 12.1154C14.7206 12.7805 14.5692 13.3349 14.2675 13.7787C13.9658 14.2225 13.5185 14.5859 12.928 14.869C13.741 15.1031 14.3479 15.5131 14.7486 16.0978C15.1492 16.6825 15.3496 17.3884 15.3496 18.2143C15.3496 18.8794 15.2203 19.4559 14.9617 19.9428C14.7031 20.4297 14.3548 20.8269 13.9169 21.1344C13.4789 21.4431 12.9804 21.6702 12.4201 21.8182C11.8564 21.9661 11.2751 22.0406 10.6927 22.0395H4.2968V8.84344H10.5063ZM10.1371 14.1841C10.6543 14.1841 11.0794 14.0606 11.4126 13.8148C11.7457 13.5679 11.9123 13.1683 11.9111 12.6139C11.9111 12.3064 11.8552 12.0536 11.7445 11.8568C11.6339 11.6599 11.4859 11.505 11.3007 11.3944C11.1155 11.2837 10.9035 11.2068 10.6636 11.1637C10.4167 11.1206 10.1662 11.0985 9.91463 11.0997H7.19948V14.1864L10.1371 14.1841ZM10.3037 19.7832C10.5774 19.7844 10.85 19.7565 11.1167 19.7005C11.3753 19.6446 11.6036 19.5526 11.8004 19.4233C11.9973 19.294 12.1545 19.1181 12.2722 18.8968C12.3887 18.6755 12.4481 18.3913 12.4481 18.0465C12.4481 17.3698 12.257 16.8852 11.875 16.5964C11.4929 16.3063 10.9874 16.1619 10.3596 16.1619H7.19948V19.7844L10.3037 19.7832ZM19.0001 19.506C19.3938 19.8881 19.961 20.0791 20.7007 20.0791C21.2307 20.0791 21.6861 19.9463 22.0682 19.6819C22.4502 19.4175 22.6843 19.1368 22.7705 18.8409H25.0803C24.7111 19.9871 24.1438 20.8059 23.3797 21.2987C22.6156 21.7914 21.6919 22.0383 20.6075 22.0383C19.8562 22.0383 19.1783 21.9183 18.5749 21.6784C17.9716 21.4384 17.4602 21.096 17.0409 20.6522C16.6215 20.2084 16.2977 19.6796 16.0706 19.0634C15.8435 18.4472 15.7293 17.7693 15.7293 17.0308C15.7293 16.3168 15.8458 15.6517 16.0799 15.0355C16.314 14.4193 16.6472 13.887 17.0782 13.4374C17.5091 12.9878 18.024 12.6337 18.6215 12.3751C19.2191 12.1165 19.8818 11.9872 20.6087 11.9872C21.4217 11.9872 22.1299 12.1445 22.7344 12.459C23.3378 12.7735 23.834 13.1951 24.2219 13.7251C24.6097 14.2551 24.8905 14.8585 25.0629 15.5364C25.2352 16.2143 25.297 16.9225 25.2481 17.6621H18.3548C18.3909 18.509 18.6064 19.1251 19.0001 19.506ZM21.9668 14.4799C21.6523 14.1351 21.1748 13.9627 20.5341 13.9627C20.1148 13.9627 19.7665 14.0338 19.4905 14.1747C19.2132 14.3168 18.9919 14.4916 18.8254 14.7012C18.6588 14.9109 18.5423 15.1322 18.4747 15.3663C18.4072 15.6004 18.3664 15.8101 18.3548 15.9942H22.6238C22.4991 15.3302 22.2801 14.8247 21.9668 14.4799ZM17.9052 9.5132H23.2388V10.9925H17.9052V9.5132Z" fill="#FF8500"/>
</g>
<defs>
<clipPath id="clip0_1_50">
<rect width="29.12" height="29.12" fill="white" transform="translate(0.220001 0.880859)"/>
</clipPath>
</defs>
</svg>
