<svg width="30" height="30" viewBox="0 0 30 30" fill="none" xmlns="http://www.w3.org/2000/svg">
<g id="facebook-round-icon-png-free-download 1" clip-path="url(#clip0_1_46)">
<g id="ELEMENTS">
<path id="Vector" d="M29.12 15.4409C29.119 12.6585 28.3207 9.93463 26.8197 7.59181C25.3187 5.24899 23.1778 3.38532 20.6506 2.22141C18.1233 1.05751 15.3155 0.642121 12.5595 1.02442C9.80344 1.40673 7.21468 2.57071 5.09964 4.37858C2.9846 6.18644 1.43186 8.56248 0.625248 11.2254C-0.181368 13.8883 -0.208083 16.7266 0.548266 19.4042C1.30462 22.0819 2.81235 24.4867 4.89299 26.3341C6.97362 28.1814 9.54002 29.3939 12.2883 29.828V19.6467H8.58456V15.4409H12.2883V12.2309C12.2883 8.58475 14.4612 6.56824 17.7864 6.56824C18.8895 6.58242 19.9899 6.67871 21.0787 6.85631V10.4366H19.2103C18.8973 10.3947 18.5789 10.4237 18.2786 10.5215C17.9783 10.6192 17.7038 10.7832 17.4755 11.0013C17.2471 11.2194 17.0707 11.486 16.9592 11.7815C16.8478 12.077 16.8042 12.3937 16.8317 12.7083V15.4409H20.8729L20.2309 19.6467H16.8317V29.828C20.2572 29.2852 23.3768 27.5381 25.6293 24.9009C27.8819 22.2636 29.1196 18.9092 29.12 15.4409Z" fill="white"/>
<path id="Vector_2" d="M20.2309 19.6467L20.8729 15.4409H16.8317V12.7083C16.8042 12.3937 16.8478 12.077 16.9592 11.7815C17.0707 11.486 17.2471 11.2194 17.4755 11.0013C17.7039 10.7832 17.9783 10.6192 18.2786 10.5215C18.5789 10.4237 18.8973 10.3947 19.2103 10.4366H21.0457V6.85631C19.957 6.6787 18.8565 6.58241 17.7535 6.56824C14.4612 6.56824 12.2554 8.58474 12.2554 12.2309V15.4409H8.55164V19.6467H12.2554V29.828C13.7611 30.0585 15.2931 30.0585 16.7987 29.828V19.6467H20.2309Z" fill="#FF8500"/>
</g>
</g>
<defs>
<clipPath id="clip0_1_46">
<rect width="29.12" height="29.12" fill="white" transform="translate(0 0.880859)"/>
</clipPath>
</defs>
</svg>
