<svg width="84" height="103" viewBox="0 0 84 103" fill="none" xmlns="http://www.w3.org/2000/svg">
<path d="M1.75476 13.389C0.403861 11.6539 -0.204903 9.45431 0.0616194 7.27147C0.192978 6.19349 0.536993 5.15229 1.07372 4.20824C1.61045 3.26419 2.32923 2.43605 3.18837 1.77184C4.0448 1.09755 5.0261 0.599254 6.07582 0.305629C7.12555 0.0120032 8.22297 -0.0711573 9.30495 0.0609319C10.3869 0.193021 11.4321 0.537753 12.3804 1.07529C13.3286 1.61283 14.1612 2.33257 14.8303 3.1931L38.3119 33.2619C38.4884 33.5025 38.6825 33.7297 38.8927 33.9416C36.0204 34.4133 33.3125 35.5985 31.0172 37.3885C28.7219 39.1786 26.9127 41.5161 25.7554 44.187C25.6071 43.9522 25.4464 43.705 25.2487 43.4454L1.75476 13.389Z" fill="#282828"/>
<path d="M82.1733 89.4077C82.8603 90.2622 83.3707 91.2446 83.675 92.2979C83.9793 93.3512 84.0713 94.4544 83.9459 95.5436C83.8204 96.6328 83.4799 97.6862 82.944 98.6427C82.4082 99.5993 81.6878 100.44 80.8245 101.116C79.9612 101.792 78.9723 102.289 77.9152 102.58C76.858 102.871 75.7537 102.949 74.6662 102.809C73.5788 102.669 72.5298 102.315 71.5803 101.767C70.6308 101.219 69.7995 100.488 69.1348 99.616L45.6533 69.5596C45.269 69.0579 44.8202 68.6091 44.3185 68.2249C47.2613 67.7738 50.0387 66.5743 52.3846 64.7413C54.7305 62.9083 56.5661 60.5033 57.7154 57.757C57.981 58.3152 58.3085 58.8416 58.6917 59.3266L82.1733 89.4077Z" fill="#282828"/>
<path d="M39.4735 68.3482C39.0389 68.7129 38.6489 69.1277 38.3118 69.584L14.8302 99.6157C13.4782 101.35 11.4927 102.475 9.31056 102.745C7.12843 103.015 4.92842 102.408 3.1945 101.056C1.46058 99.7034 0.334777 97.718 0.0647638 95.5358C-0.205249 93.3537 0.402642 91.1537 1.75471 89.4198L25.2486 59.3263C25.4729 59.0342 25.6792 58.7288 25.8666 58.4117C27.1054 61.0794 29.0038 63.3871 31.3825 65.1171C33.7612 66.8471 36.5416 67.9421 39.4612 68.2987" fill="#282828"/>
<path d="M44.887 34.0896C45.1606 33.8347 45.4127 33.5578 45.6408 33.2615L69.1224 3.19277C70.4745 1.46049 72.4593 0.336259 74.6403 0.0674044C76.8212 -0.20145 79.0197 0.407092 80.752 1.75916C82.4842 3.11122 83.6085 5.09606 83.8773 7.27702C84.1462 9.45799 83.5376 11.6564 82.1856 13.3887L58.704 43.4451C58.3639 43.8833 58.0698 44.3555 57.8265 44.854C56.7604 42.1114 55.0148 39.6847 52.7535 37.8018C50.4923 35.9189 47.7896 34.6415 44.8993 34.0896" fill="#282828"/>
<path d="M52.895 51.4039C52.895 53.5667 52.253 55.6809 51.0503 57.4786C49.8476 59.2763 48.1384 60.6766 46.1392 61.502C44.1401 62.3274 41.9409 62.5409 39.8203 62.1153C37.6997 61.6897 35.7531 60.6443 34.2272 59.1114C32.7013 57.5786 31.6647 55.6273 31.2487 53.5048C30.8328 51.3823 31.0562 49.1841 31.8907 47.1886C32.7251 45.1932 34.1331 43.4904 35.9362 42.2959C37.7394 41.1014 39.8565 40.469 42.0193 40.4787C43.4545 40.4771 44.8759 40.7586 46.2021 41.3071C47.5283 41.8555 48.7333 42.6602 49.7482 43.675C50.763 44.6898 51.5676 45.8948 52.1161 47.2211C52.6646 48.5473 52.946 49.9687 52.9444 51.4039" fill="#FF8500"/>
</svg>
