<svg width="30" height="30" viewBox="0 0 30 30" fill="none" xmlns="http://www.w3.org/2000/svg">
<g id="in 1" clip-path="url(#clip0_1_53)">
<path id="Vector" d="M15 30.0009C6.93943 30.0009 0.440002 23.5014 0.440002 15.4409C0.440002 7.38029 6.93943 0.880859 15 0.880859C23.0606 0.880859 29.56 7.41215 29.56 15.4409C29.56 23.5014 23.0606 30.0009 15 30.0009Z" fill="white"/>
<g id="Group">
<path id="Vector_2" d="M7.69143 7.20465H7.44C6.59143 7.20465 5.9 7.89608 5.9 8.74465C5.9 9.59322 6.59143 10.2846 7.44 10.2846H7.69143C8.54 10.2846 9.23143 9.59322 9.23143 8.74465C9.23143 7.89608 8.57143 7.20465 7.69143 7.20465Z" fill="#FF8500"/>
<path id="Vector_3" d="M9.23143 11.1019H5.9V23.7362H9.23143V11.1019Z" fill="#FF8500"/>
<path id="Vector_4" d="M24.0028 13.6475C23.8771 13.1132 23.6571 12.6418 23.3428 12.2332C23.0286 11.8247 22.5571 11.4789 21.96 11.2275C21.3628 10.9761 20.6714 10.8189 19.9486 10.8189C18.2828 10.8189 16.8686 11.5418 15.7686 12.9561V11.1018H12.6571V23.7361H15.9886V18.0161C15.9886 16.6018 16.0828 15.6275 16.24 15.1247C16.3971 14.5904 16.7114 14.1818 17.1828 13.8675C17.6543 13.5532 18.1571 13.3961 18.7543 13.3961C19.1943 13.3961 19.6028 13.5218 19.9171 13.7418C20.2314 13.9618 20.4828 14.2761 20.6086 14.6846C20.7657 15.0932 20.8286 15.9732 20.8286 17.3246V23.7675H24.16V15.9104C24.1914 14.9047 24.1286 14.1504 24.0028 13.6475Z" fill="#FF8500"/>
</g>
</g>
<defs>
<clipPath id="clip0_1_53">
<rect width="29.12" height="29.12" fill="white" transform="translate(0.440002 0.880859)"/>
</clipPath>
</defs>
</svg>
