<svg width="30" height="30" viewBox="0 0 30 30" fill="none" xmlns="http://www.w3.org/2000/svg">
<g id="instragram-round-icon-png-free-download 1" clip-path="url(#clip0_1_59)">
<g id="ELEMENTS">
<path id="Vector" d="M15.22 30.0009C23.2613 30.0009 29.78 23.4821 29.78 15.4409C29.78 7.39959 23.2613 0.880859 15.22 0.880859C7.17874 0.880859 0.660004 7.39959 0.660004 15.4409C0.660004 23.4821 7.17874 30.0009 15.22 30.0009Z" fill="white"/>
<path id="Vector_2" d="M19.7386 9.93457C19.5397 9.93458 19.3452 9.99369 19.1799 10.1044C19.0146 10.2151 18.8859 10.3724 18.8102 10.5564C18.7344 10.7403 18.715 10.9427 18.7544 11.1377C18.7938 11.3327 18.8903 11.5116 19.0316 11.6517C19.1728 11.7918 19.3525 11.8867 19.5478 11.9245C19.7431 11.9624 19.9453 11.9413 20.1286 11.864C20.312 11.7868 20.4682 11.6568 20.5776 11.4906C20.6869 11.3244 20.7444 11.1294 20.7428 10.9305C20.7428 10.799 20.7167 10.6688 20.6662 10.5475C20.6156 10.4261 20.5415 10.3159 20.4482 10.2233C20.3548 10.1308 20.2441 10.0576 20.1223 10.008C20.0005 9.95845 19.8701 9.93349 19.7386 9.93457Z" fill="#FF8500"/>
<path id="Vector_3" d="M15.2941 11.2185C14.4619 11.2169 13.6479 11.4622 12.9552 11.9234C12.2625 12.3845 11.7221 13.0408 11.4025 13.8092C11.0829 14.5776 10.9984 15.4235 11.1598 16.2399C11.3212 17.0563 11.7211 17.8064 12.3089 18.3955C12.8968 18.9845 13.6462 19.3859 14.4623 19.5488C15.2784 19.7118 16.1245 19.629 16.8934 19.3109C17.6624 18.9928 18.3198 18.4537 18.7823 17.7619C19.2448 17.0701 19.4917 16.2566 19.4917 15.4244C19.4917 14.3104 19.0497 13.2418 18.2627 12.4533C17.4758 11.6648 16.4081 11.2207 15.2941 11.2185ZM15.2941 18.1158C14.7594 18.1174 14.2364 17.9603 13.7911 17.6643C13.3459 17.3683 12.9986 16.9467 12.7933 16.4531C12.5879 15.9595 12.5338 15.416 12.6377 14.8915C12.7416 14.3671 12.9989 13.8853 13.3769 13.5072C13.755 13.1292 14.2367 12.8719 14.7612 12.768C15.2856 12.6641 15.8291 12.7183 16.3228 12.9236C16.8164 13.129 17.2379 13.4763 17.534 13.9215C17.83 14.3667 17.9871 14.8898 17.9855 15.4244C17.9833 16.1375 17.6991 16.8209 17.1948 17.3251C16.6905 17.8294 16.0072 18.1136 15.2941 18.1158Z" fill="#FF8500"/>
<path id="Vector_4" d="M18.6275 23.9266H11.8125C10.4532 23.9245 9.15026 23.3835 8.1891 22.4224C7.22794 21.4612 6.68701 20.1582 6.68483 18.7989V12.0169C6.68483 10.6562 7.2248 9.3511 8.18619 8.38816C9.14759 7.42523 10.4518 6.88316 11.8125 6.88098H18.6275C19.9882 6.88316 21.2924 7.42523 22.2538 8.38816C23.2152 9.3511 23.7552 10.6562 23.7552 12.0169V18.8319C23.7443 20.1854 23.1996 21.48 22.2393 22.434C21.2791 23.3881 19.9811 23.9245 18.6275 23.9266ZM11.8125 8.49419C10.8782 8.49419 9.98222 8.86533 9.32158 9.52597C8.66095 10.1866 8.2898 11.0826 8.2898 12.0169V18.8319C8.2898 19.7662 8.66095 20.6622 9.32158 21.3228C9.98222 21.9834 10.8782 22.3546 11.8125 22.3546H18.6275C19.5618 22.3546 20.4578 21.9834 21.1184 21.3228C21.7791 20.6622 22.1502 19.7662 22.1502 18.8319V12.0169C22.1502 11.0826 21.7791 10.1866 21.1184 9.52597C20.4578 8.86533 19.5618 8.49419 18.6275 8.49419H11.8125Z" fill="#FF8500"/>
</g>
</g>
<defs>
<clipPath id="clip0_1_59">
<rect width="29.12" height="29.12" fill="white" transform="translate(0.660004 0.880859)"/>
</clipPath>
</defs>
</svg>
