<svg width="30" height="30" viewBox="0 0 30 30" fill="none" xmlns="http://www.w3.org/2000/svg">
<g id="twitter-icon-png-free-download 1" clip-path="url(#clip0_1_65)">
<g id="ELEMENTS">
<path id="Vector" d="M15.44 30.0009C23.4813 30.0009 30 23.4821 30 15.4409C30 7.39959 23.4813 0.880859 15.44 0.880859C7.39874 0.880859 0.880005 7.39959 0.880005 15.4409C0.880005 23.4821 7.39874 30.0009 15.44 30.0009Z" fill="white"/>
<path id="Vector_2" d="M23.4896 10.4531C22.962 10.674 22.4091 10.8288 21.8434 10.914C22.1068 10.8646 22.4854 10.3955 22.6665 10.2144C22.9077 9.92641 23.0895 9.59354 23.2015 9.23497C23.2108 9.22329 23.2159 9.20878 23.2159 9.19381C23.2159 9.17885 23.2108 9.16434 23.2015 9.15266C23.1872 9.14655 23.1718 9.1434 23.1562 9.1434C23.1407 9.1434 23.1253 9.14655 23.111 9.15266C22.5124 9.49173 21.8736 9.75442 21.2097 9.93457C21.19 9.947 21.1671 9.9536 21.1438 9.9536C21.1205 9.9536 21.0977 9.947 21.078 9.93457L20.9134 9.76996C20.6446 9.50105 20.3331 9.27855 19.9915 9.11151C19.5418 8.93338 19.0589 8.85476 18.5759 8.88105C18.1076 8.91461 17.651 9.04345 17.2343 9.25966C16.8167 9.48082 16.4473 9.78301 16.1478 10.1486C15.8479 10.5155 15.6321 10.9436 15.5155 11.4029C15.3989 11.8623 15.3843 12.3415 15.4729 12.8071C15.4729 12.8894 15.4729 12.8976 15.4071 12.8894C12.8926 12.6433 10.5599 11.4696 8.86372 9.59712C8.78142 9.50658 8.74026 9.50658 8.68265 9.59712C8.33861 10.2225 8.20716 10.9429 8.30811 11.6495C8.40906 12.3561 8.73694 13.0108 9.24233 13.5149C9.37402 13.6384 9.50571 13.7618 9.64564 13.8688C9.20669 13.8347 8.77877 13.7145 8.38635 13.5149C8.28758 13.4408 8.28758 13.4737 8.28758 13.5561C8.27585 13.682 8.27585 13.8087 8.28758 13.9347C8.36472 14.5234 8.59655 15.0811 8.95947 15.551C9.32238 16.0209 9.80339 16.3862 10.3535 16.6096C10.4895 16.6631 10.6299 16.7044 10.7732 16.7331C10.362 16.8039 9.94166 16.8039 9.53041 16.7331C9.43987 16.7331 9.40695 16.7331 9.43987 16.8483C9.65241 17.402 10.0029 17.8923 10.4581 18.2726C10.9132 18.6529 11.458 18.9106 12.0408 19.0212L12.4029 19.0706C11.8958 19.5238 11.2854 19.846 10.6251 20.0089C9.76129 20.3201 8.83977 20.4381 7.92543 20.3546C7.78551 20.3546 7.75259 20.3546 7.71144 20.3546C7.67028 20.3546 7.71144 20.4122 7.75259 20.4533C7.94189 20.5768 8.12297 20.6838 8.31227 20.7908C8.88758 21.0955 9.49486 21.3357 10.123 21.5069C11.7324 21.9909 13.4405 22.0442 15.0769 21.6614C16.7133 21.2787 18.2206 20.4733 19.4483 19.3257C20.3322 18.368 21.016 17.2436 21.4598 16.0182C21.9036 14.7929 22.0984 13.4913 22.0327 12.1898C22.0327 12.0828 22.148 12.0252 22.2221 11.9758C22.6894 11.6277 23.1075 11.2179 23.4649 10.7576C23.5206 10.6876 23.5498 10.6002 23.5472 10.5107C23.5472 10.4119 23.5472 10.4202 23.4896 10.4531Z" fill="#FF8500"/>
</g>
</g>
<defs>
<clipPath id="clip0_1_65">
<rect width="29.12" height="29.12" fill="white" transform="translate(0.880005 0.880859)"/>
</clipPath>
</defs>
</svg>
